<mxfile host="app.diagrams.net" modified="2021-05-17T02:45:18.792Z" agent="5.0 (Macintosh; Intel Mac OS X 10_15_6) AppleWebKit/605.1.15 (KHTML, like Gecko) Version/13.1.2 Safari/605.1.15" etag="jFx09dDdV9k7kouu6TDZ" version="14.6.13" type="github">
  <diagram id="C5RBs43oDa-KdzZeNtuy" name="Page-1">
    <mxGraphModel dx="946" dy="662" grid="1" gridSize="10" guides="1" tooltips="1" connect="1" arrows="1" fold="1" page="1" pageScale="1" pageWidth="827" pageHeight="1169" math="0" shadow="0">
      <root>
        <mxCell id="WIyWlLk6GJQsqaUBKTNV-0" />
        <mxCell id="WIyWlLk6GJQsqaUBKTNV-1" parent="WIyWlLk6GJQsqaUBKTNV-0" />
        <mxCell id="AVLr1pSe_PB6GEPFK_uz-0" value="&lt;span lang=&quot;EN-HK&quot; style=&quot;font-size: 12pt ; font-family: &amp;#34;calibri&amp;#34; , sans-serif&quot;&gt;Medical instruction module&lt;/span&gt;&lt;span style=&quot;font-size: medium&quot;&gt;&lt;/span&gt;" style="rounded=0;whiteSpace=wrap;html=1;" vertex="1" parent="WIyWlLk6GJQsqaUBKTNV-1">
          <mxGeometry x="340" y="60" width="120" height="60" as="geometry" />
        </mxCell>
        <mxCell id="AVLr1pSe_PB6GEPFK_uz-2" style="edgeStyle=orthogonalEdgeStyle;rounded=0;orthogonalLoop=1;jettySize=auto;html=1;entryX=0;entryY=0.5;entryDx=0;entryDy=0;" edge="1" parent="WIyWlLk6GJQsqaUBKTNV-1" source="AVLr1pSe_PB6GEPFK_uz-1" target="AVLr1pSe_PB6GEPFK_uz-0">
          <mxGeometry relative="1" as="geometry" />
        </mxCell>
        <mxCell id="AVLr1pSe_PB6GEPFK_uz-1" value="&lt;p class=&quot;MsoNormal&quot; style=&quot;margin: 0cm ; font-size: medium ; font-family: &amp;#34;calibri&amp;#34; , sans-serif&quot;&gt;&lt;span lang=&quot;EN-HK&quot;&gt;User viewing instruction sub module&lt;/span&gt;&lt;/p&gt;" style="rounded=0;whiteSpace=wrap;html=1;" vertex="1" parent="WIyWlLk6GJQsqaUBKTNV-1">
          <mxGeometry x="160" y="150" width="120" height="60" as="geometry" />
        </mxCell>
        <mxCell id="AVLr1pSe_PB6GEPFK_uz-4" style="edgeStyle=orthogonalEdgeStyle;rounded=0;orthogonalLoop=1;jettySize=auto;html=1;entryX=0.25;entryY=1;entryDx=0;entryDy=0;" edge="1" parent="WIyWlLk6GJQsqaUBKTNV-1" source="AVLr1pSe_PB6GEPFK_uz-3" target="AVLr1pSe_PB6GEPFK_uz-0">
          <mxGeometry relative="1" as="geometry" />
        </mxCell>
        <mxCell id="AVLr1pSe_PB6GEPFK_uz-3" value="&lt;p class=&quot;MsoNormal&quot; style=&quot;margin: 0cm ; font-size: medium ; font-family: &amp;#34;calibri&amp;#34; , sans-serif&quot;&gt;&lt;span lang=&quot;EN-HK&quot;&gt;View log statistics sub module&lt;/span&gt;&lt;/p&gt;" style="rounded=0;whiteSpace=wrap;html=1;" vertex="1" parent="WIyWlLk6GJQsqaUBKTNV-1">
          <mxGeometry x="310" y="230" width="120" height="60" as="geometry" />
        </mxCell>
        <mxCell id="AVLr1pSe_PB6GEPFK_uz-6" style="edgeStyle=orthogonalEdgeStyle;rounded=0;orthogonalLoop=1;jettySize=auto;html=1;entryX=0.75;entryY=1;entryDx=0;entryDy=0;" edge="1" parent="WIyWlLk6GJQsqaUBKTNV-1" source="AVLr1pSe_PB6GEPFK_uz-5" target="AVLr1pSe_PB6GEPFK_uz-0">
          <mxGeometry relative="1" as="geometry" />
        </mxCell>
        <mxCell id="AVLr1pSe_PB6GEPFK_uz-5" value="&lt;p class=&quot;MsoNormal&quot; style=&quot;margin: 0cm ; font-size: medium ; font-family: &amp;#34;calibri&amp;#34; , sans-serif&quot;&gt;&lt;span lang=&quot;EN-HK&quot;&gt;Medical instructions management sub module&lt;/span&gt;&lt;/p&gt;" style="rounded=0;whiteSpace=wrap;html=1;" vertex="1" parent="WIyWlLk6GJQsqaUBKTNV-1">
          <mxGeometry x="450" y="190" width="150" height="80" as="geometry" />
        </mxCell>
      </root>
    </mxGraphModel>
  </diagram>
</mxfile>
